<?xml version="1.0" encoding="utf-8"?>
<svg version="1.1" xmlns="http://www.w3.org/2000/svg" xmlns:xlink="http://www.w3.org/1999/xlink" x="0px" y="0px"
	 viewBox="0 0 200 200"  xml:space="preserve" >
	<g>
		<path style="fill:#fff;" class="st0" d="M195.9,175.3c-11.6,0-23,0-35,0c-22-37.7-44.2-75.5-66.4-113.6c-17.4,29.9-34.7,59.4-51.9,89
			c0.1,0.2,0.3,0.3,0.4,0.5c19.9-6.1,39.9-12.1,60-18.3c5.2,8.9,10.4,17.7,15.8,27c-34.1,10.7-68,21.2-101.9,31.9
			c-5.6-9.3-11.1-18.3-16.7-27.5C31.3,109.6,62.7,54.8,94.1,0C96,1.4,193.7,169.9,195.9,175.3z"/>

	</g>
</svg>